{
  "accessors": [
    {
      "bufferView": 2,
      "componentType": 5126,
      "count": 65532,
      "max": [
        3.4091041088104248,
        -8.1763687133789062,
        4.310187816619873
      ],
      "min": [
        -4.1485657691955566,
        -14.897599220275879,
        -3.6319239139556885
      ],
      "type": "VEC3"
    },
    {
      "bufferView": 2,
      "byteOffset": 786384,
      "componentType": 5126,
      "count": 65532,
      "max": [
        0.99997389316558838,
        0.99997448921203613,
        0.99995386600494385
      ],
      "min": [
        -0.99458461999893188,
        -0.99990087747573853,
        -0.99546736478805542
      ],
      "type": "VEC3"
    },
    {
      "bufferView": 1,
      "componentType": 5126,
      "count": 65532,
      "max": [
        0.99864602088928223,
        0.99827200174331665
      ],
      "min": [
        0.00024500000290572643,
        0.0077390000224113464
      ],
      "type": "VEC2"
    },
    {
      "bufferView": 0,
      "componentType": 5125,
      "count": 287091,
      "max": [
        65531
      ],
      "min": [
        0
      ],
      "type": "SCALAR"
    },
    {
      "bufferView": 2,
      "byteOffset": 1572768,
      "componentType": 5126,
      "count": 65532,
      "max": [
        3.415092945098877,
        -8.1654443740844727,
        4.254511833190918
      ],
      "min": [
        -3.9724569320678711,
        -14.905072212219238,
        -3.725322961807251
      ],
      "type": "VEC3"
    },
    {
      "bufferView": 2,
      "byteOffset": 2359152,
      "componentType": 5126,
      "count": 65532,
      "max": [
        0.99997377395629883,
        0.99989324808120728,
        0.99994337558746338
      ],
      "min": [
        -0.99981600046157837,
        -0.99994522333145142,
        -0.99999833106994629
      ],
      "type": "VEC3"
    },
    {
      "bufferView": 1,
      "byteOffset": 524256,
      "componentType": 5126,
      "count": 65532,
      "max": [
        0.99968802928924561,
        0.99721497297286987
      ],
      "min": [
        0.00031800000579096377,
        0.016940999776124954
      ],
      "type": "VEC2"
    },
    {
      "bufferView": 0,
      "byteOffset": 1148364,
      "componentType": 5125,
      "count": 286518,
      "max": [
        65531
      ],
      "min": [
        0
      ],
      "type": "SCALAR"
    },
    {
      "bufferView": 2,
      "byteOffset": 3145536,
      "componentType": 5126,
      "count": 65533,
      "max": [
        3.4059679508209229,
        -8.169255256652832,
        4.22607421875
      ],
      "min": [
        -4.1520071029663086,
        -14.91408634185791,
        -3.6978800296783447
      ],
      "type": "VEC3"
    },
    {
      "bufferView": 2,
      "byteOffset": 3931932,
      "componentType": 5126,
      "count": 65533,
      "max": [
        0.9999924898147583,
        0.99997448921203613,
        0.99916434288024902
      ],
      "min": [
        -0.99997961521148682,
        -0.99997025728225708,
        -0.99997234344482422
      ],
      "type": "VEC3"
    },
    {
      "bufferView": 1,
      "byteOffset": 1048512,
      "componentType": 5126,
      "count": 65533,
      "max": [
        0.99937301874160767,
        0.99976998567581177
      ],
      "min": [
        0.00029600001289509237,
        0.0093170003965497017
      ],
      "type": "VEC2"
    },
    {
      "bufferView": 0,
      "byteOffset": 2294436,
      "componentType": 5125,
      "count": 281346,
      "max": [
        65532
      ],
      "min": [
        0
      ],
      "type": "SCALAR"
    },
    {
      "bufferView": 2,
      "byteOffset": 4718328,
      "componentType": 5126,
      "count": 65532,
      "max": [
        3.4141850471496582,
        -8.1677207946777344,
        4.3107872009277344
      ],
      "min": [
        -4.1382818222045898,
        -14.913600921630859,
        -3.725322961807251
      ],
      "type": "VEC3"
    },
    {
      "bufferView": 2,
      "byteOffset": 5504712,
      "componentType": 5126,
      "count": 65532,
      "max": [
        0.99998587369918823,
        0.99988162517547607,
        0.99995386600494385
      ],
      "min": [
        -0.99995213747024536,
        -0.99994748830795288,
        -0.99987214803695679
      ],
      "type": "VEC3"
    },
    {
      "bufferView": 1,
      "byteOffset": 1572776,
      "componentType": 5126,
      "count": 65532,
      "max": [
        0.99860697984695435,
        0.9997519850730896
      ],
      "min": [
        0.00023400000645779073,
        0.0036929999478161335
      ],
      "type": "VEC2"
    },
    {
      "bufferView": 0,
      "byteOffset": 3419820,
      "componentType": 5125,
      "count": 260640,
      "max": [
        65531
      ],
      "min": [
        0
      ],
      "type": "SCALAR"
    },
    {
      "bufferView": 2,
      "byteOffset": 6291096,
      "componentType": 5126,
      "count": 65532,
      "max": [
        3.415147066116333,
        -8.1665458679199219,
        4.3108129501342773
      ],
      "min": [
        -4.1335749626159668,
        -14.910388946533203,
        -3.7229349613189697
      ],
      "type": "VEC3"
    },
    {
      "bufferView": 2,
      "byteOffset": 7077480,
      "componentType": 5126,
      "count": 65532,
      "max": [
        0.9999692440032959,
        0.99992549419403076,
        0.99995386600494385
      ],
      "min": [
        -0.9999879002571106,
        -0.99997645616531372,
        -0.99999785423278809
      ],
      "type": "VEC3"
    },
    {
      "bufferView": 1,
      "byteOffset": 2097032,
      "componentType": 5126,
      "count": 65532,
      "max": [
        0.99971497058868408,
        0.9997519850730896
      ],
      "min": [
        0.00023400000645779073,
        0.0047590001486241817
      ],
      "type": "VEC2"
    },
    {
      "bufferView": 0,
      "byteOffset": 4462380,
      "componentType": 5125,
      "count": 214404,
      "max": [
        65531
      ],
      "min": [
        0
      ],
      "type": "SCALAR"
    },
    {
      "bufferView": 2,
      "byteOffset": 7863864,
      "componentType": 5126,
      "count": 65532,
      "max": [
        3.4139029979705811,
        -8.16998291015625,
        4.3063650131225586
      ],
      "min": [
        -4.1457819938659668,
        -14.910981178283691,
        -3.7245221138000488
      ],
      "type": "VEC3"
    },
    {
      "bufferView": 2,
      "byteOffset": 8650248,
      "componentType": 5126,
      "count": 65532,
      "max": [
        0.99996465444564819,
        0.9993857741355896,
        0.99984800815582275
      ],
      "min": [
        -0.99980413913726807,
        -0.99997645616531372,
        -0.99997001886367798
      ],
      "type": "VEC3"
    },
    {
      "bufferView": 1,
      "byteOffset": 2621288,
      "componentType": 5126,
      "count": 65532,
      "max": [
        0.99848097562789917,
        0.99976998567581177
      ],
      "min": [
        0.00022600000374950469,
        0.0048639997839927673
      ],
      "type": "VEC2"
    },
    {
      "bufferView": 0,
      "byteOffset": 5319996,
      "componentType": 5125,
      "count": 151416,
      "max": [
        65531
      ],
      "min": [
        0
      ],
      "type": "SCALAR"
    },
    {
      "bufferView": 2,
      "byteOffset": 9436632,
      "componentType": 5126,
      "count": 65534,
      "max": [
        3.415147066116333,
        -8.1665458679199219,
        4.3065681457519531
      ],
      "min": [
        -4.1334600448608398,
        -14.912468910217285,
        -3.7246670722961426
      ],
      "type": "VEC3"
    },
    {
      "bufferView": 2,
      "byteOffset": 10223040,
      "componentType": 5126,
      "count": 65534,
      "max": [
        0.99998414516448975,
        0.9999271035194397,
        0.99995386600494385
      ],
      "min": [
        -0.99997961521148682,
        -0.99994558095932007,
        -0.99999833106994629
      ],
      "type": "VEC3"
    },
    {
      "bufferView": 1,
      "byteOffset": 3145544,
      "componentType": 5126,
      "count": 65534,
      "max": [
        0.99888300895690918,
        0.99977302551269531
      ],
      "min": [
        0.0002280000044265762,
        0.0039229998365044594
      ],
      "type": "VEC2"
    },
    {
      "bufferView": 0,
      "byteOffset": 5925660,
      "componentType": 5125,
      "count": 105600,
      "max": [
        65533
      ],
      "min": [
        0
      ],
      "type": "SCALAR"
    },
    {
      "bufferView": 2,
      "byteOffset": 11009448,
      "componentType": 5126,
      "count": 44193,
      "max": [
        3.415147066116333,
        -8.1738061904907227,
        4.3006739616394043
      ],
      "min": [
        -4.1242060661315918,
        -14.912339210510254,
        -3.720958948135376
      ],
      "type": "VEC3"
    },
    {
      "bufferView": 2,
      "byteOffset": 11539764,
      "componentType": 5126,
      "count": 44193,
      "max": [
        0.99998587369918823,
        0.99915534257888794,
        0.99954885244369507
      ],
      "min": [
        -0.99982976913452148,
        -0.99988573789596558,
        -0.99953389167785645
      ],
      "type": "VEC3"
    },
    {
      "bufferView": 1,
      "byteOffset": 3669816,
      "componentType": 5126,
      "count": 44193,
      "max": [
        0.99975699186325073,
        0.99976301193237305
      ],
      "min": [
        0.00022699999681208283,
        0.0039229998365044594
      ],
      "type": "VEC2"
    },
    {
      "bufferView": 0,
      "byteOffset": 6348060,
      "componentType": 5125,
      "count": 51843,
      "max": [
        44192
      ],
      "min": [
        0
      ],
      "type": "SCALAR"
    }
  ],
  "asset": {
    "extras": {
      "author": "ermatho (https://sketchfab.com/ermatho)",
      "license": "CC-BY-4.0 (http://creativecommons.org/licenses/by/4.0/)",
      "source": "https://sketchfab.com/3d-models/indus-valley-ceramics-9129b1f2213e4667880dfa171db5a771",
      "title": "Indus valley ceramics"
    },
    "generator": "Sketchfab-10.16.0",
    "version": "2.0"
  },
  "bufferViews": [
    {
      "buffer": 0,
      "byteLength": 6555432,
      "byteOffset": 0,
      "name": "floatBufferViews",
      "target": 34963
    },
    {
      "buffer": 0,
      "byteLength": 4023360,
      "byteOffset": 6555432,
      "byteStride": 8,
      "name": "floatBufferViews",
      "target": 34962
    },
    {
      "buffer": 0,
      "byteLength": 12070080,
      "byteOffset": 10578792,
      "byteStride": 12,
      "name": "floatBufferViews",
      "target": 34962
    }
  ],
  "buffers": [
    {
      "byteLength": 22648872,
      "uri": "scene.bin"
    }
  ],
  "extensionsUsed": [
    "KHR_materials_unlit"
  ],
  "images": [
    {
      "uri": "textures/ind3_baseColor.jpeg"
    }
  ],
  "materials": [
    {
      "doubleSided": true,
      "emissiveFactor": [
        0,
        0,
        0
      ],
      "extensions": {
        "KHR_materials_unlit": {}
      },
      "name": "ind3",
      "pbrMetallicRoughness": {
        "baseColorFactor": [
          1,
          1,
          1,
          1
        ],
        "baseColorTexture": {
          "index": 0,
          "texCoord": 0
        },
        "metallicFactor": 0,
        "roughnessFactor": 1
      }
    }
  ],
  "meshes": [
    {
      "primitives": [
        {
          "attributes": {
            "NORMAL": 1,
            "POSITION": 0,
            "TEXCOORD_0": 2
          },
          "indices": 3,
          "material": 0,
          "mode": 4
        }
      ]
    },
    {
      "primitives": [
        {
          "attributes": {
            "NORMAL": 5,
            "POSITION": 4,
            "TEXCOORD_0": 6
          },
          "indices": 7,
          "material": 0,
          "mode": 4
        }
      ]
    },
    {
      "primitives": [
        {
          "attributes": {
            "NORMAL": 9,
            "POSITION": 8,
            "TEXCOORD_0": 10
          },
          "indices": 11,
          "material": 0,
          "mode": 4
        }
      ]
    },
    {
      "primitives": [
        {
          "attributes": {
            "NORMAL": 13,
            "POSITION": 12,
            "TEXCOORD_0": 14
          },
          "indices": 15,
          "material": 0,
          "mode": 4
        }
      ]
    },
    {
      "primitives": [
        {
          "attributes": {
            "NORMAL": 17,
            "POSITION": 16,
            "TEXCOORD_0": 18
          },
          "indices": 19,
          "material": 0,
          "mode": 4
        }
      ]
    },
    {
      "primitives": [
        {
          "attributes": {
            "NORMAL": 21,
            "POSITION": 20,
            "TEXCOORD_0": 22
          },
          "indices": 23,
          "material": 0,
          "mode": 4
        }
      ]
    },
    {
      "primitives": [
        {
          "attributes": {
            "NORMAL": 25,
            "POSITION": 24,
            "TEXCOORD_0": 26
          },
          "indices": 27,
          "material": 0,
          "mode": 4
        }
      ]
    },
    {
      "primitives": [
        {
          "attributes": {
            "NORMAL": 29,
            "POSITION": 28,
            "TEXCOORD_0": 30
          },
          "indices": 31,
          "material": 0,
          "mode": 4
        }
      ]
    }
  ],
  "nodes": [
    {
      "children": [
        1
      ],
      "name": "RootNode (gltf orientation matrix)",
      "rotation": [
        -0.70710678118654746,
        -0,
        -0,
        0.70710678118654757
      ]
    },
    {
      "children": [
        2
      ],
      "matrix": [
        -0.79699629545211792,
        0.26603081822395325,
        -0.54224032163619995,
        0,
        0.37237441539764404,
        -0.49041455984115601,
        -0.78792816400527954,
        0,
        -0.47553572058677673,
        -0.82989227771759033,
        0.2917955219745636,
        0,
        -45.516006469726562,
        -84.23797607421875,
        11.878761291503906,
        1
      ],
      "name": "RootNode (model correction matrix)"
    },
    {
      "children": [
        3,
        4,
        5,
        6,
        7,
        8,
        9,
        10
      ],
      "name": "ind3.obj.cleaner.materialmerger.gles"
    },
    {
      "mesh": 0,
      "name": ""
    },
    {
      "mesh": 1,
      "name": ""
    },
    {
      "mesh": 2,
      "name": ""
    },
    {
      "mesh": 3,
      "name": ""
    },
    {
      "mesh": 4,
      "name": ""
    },
    {
      "mesh": 5,
      "name": ""
    },
    {
      "mesh": 6,
      "name": ""
    },
    {
      "mesh": 7,
      "name": ""
    }
  ],
  "samplers": [
    {
      "magFilter": 9729,
      "minFilter": 9987,
      "wrapS": 10497,
      "wrapT": 10497
    }
  ],
  "scene": 0,
  "scenes": [
    {
      "name": "OSG_Scene",
      "nodes": [
        0
      ]
    }
  ],
  "textures": [
    {
      "sampler": 0,
      "source": 0
    }
  ]
}

