{
  "accessors": [
    {
      "bufferView": 2,
      "componentType": 5126,
      "count": 65532,
      "max": [
        3.409104108810425,
        -8.176368713378906,
        4.310187816619873
      ],
      "min": [
        -4.148565769195557,
        -14.897599220275879,
        -3.6319239139556885
      ],
      "type": "VEC3"
    },
    {
      "bufferView": 2,
      "byteOffset": 786384,
      "componentType": 5126,
      "count": 65532,
      "max": [
        0.9999738931655884,
        0.9999744892120361,
        0.9999538660049438
      ],
      "min": [
        -0.9945846199989319,
        -0.9999008774757385,
        -0.9954673647880554
      ],
      "type": "VEC3"
    },
    {
      "bufferView": 1,
      "componentType": 5126,
      "count": 65532,
      "max": [
        0.9986460208892822,
        0.9982720017433167
      ],
      "min": [
        0.00024500000290572643,
        0.0077390000224113464
      ],
      "type": "VEC2"
    },
    {
      "bufferView": 0,
      "componentType": 5125,
      "count": 287091,
      "type": "SCALAR"
    },
    {
      "bufferView": 2,
      "byteOffset": 1572768,
      "componentType": 5126,
      "count": 65532,
      "max": [
        3.415092945098877,
        -8.165444374084473,
        4.254511833190918
      ],
      "min": [
        -3.972456932067871,
        -14.905072212219238,
        -3.725322961807251
      ],
      "type": "VEC3"
    },
    {
      "bufferView": 2,
      "byteOffset": 2359152,
      "componentType": 5126,
      "count": 65532,
      "max": [
        0.9999737739562988,
        0.9998932480812073,
        0.9999433755874634
      ],
      "min": [
        -0.9998160004615784,
        -0.9999452233314514,
        -0.9999983310699463
      ],
      "type": "VEC3"
    },
    {
      "bufferView": 1,
      "byteOffset": 524256,
      "componentType": 5126,
      "count": 65532,
      "max": [
        0.9996880292892456,
        0.9972149729728699
      ],
      "min": [
        0.00031800000579096377,
        0.016940999776124954
      ],
      "type": "VEC2"
    },
    {
      "bufferView": 0,
      "byteOffset": 1148364,
      "componentType": 5125,
      "count": 286518,
      "type": "SCALAR"
    },
    {
      "bufferView": 2,
      "byteOffset": 3145536,
      "componentType": 5126,
      "count": 65533,
      "max": [
        3.405967950820923,
        -8.169255256652832,
        4.22607421875
      ],
      "min": [
        -4.152007102966309,
        -14.91408634185791,
        -3.6978800296783447
      ],
      "type": "VEC3"
    },
    {
      "bufferView": 2,
      "byteOffset": 3931932,
      "componentType": 5126,
      "count": 65533,
      "max": [
        0.9999924898147583,
        0.9999744892120361,
        0.999164342880249
      ],
      "min": [
        -0.9999796152114868,
        -0.9999702572822571,
        -0.9999723434448242
      ],
      "type": "VEC3"
    },
    {
      "bufferView": 1,
      "byteOffset": 1048512,
      "componentType": 5126,
      "count": 65533,
      "max": [
        0.9993730187416077,
        0.9997699856758118
      ],
      "min": [
        0.00029600001289509237,
        0.009317000396549702
      ],
      "type": "VEC2"
    },
    {
      "bufferView": 0,
      "byteOffset": 2294436,
      "componentType": 5125,
      "count": 281346,
      "type": "SCALAR"
    },
    {
      "bufferView": 2,
      "byteOffset": 4718328,
      "componentType": 5126,
      "count": 65532,
      "max": [
        3.414185047149658,
        -8.167720794677734,
        4.310787200927734
      ],
      "min": [
        -4.13828182220459,
        -14.91360092163086,
        -3.725322961807251
      ],
      "type": "VEC3"
    },
    {
      "bufferView": 2,
      "byteOffset": 5504712,
      "componentType": 5126,
      "count": 65532,
      "max": [
        0.9999858736991882,
        0.9998816251754761,
        0.9999538660049438
      ],
      "min": [
        -0.9999521374702454,
        -0.9999474883079529,
        -0.9998721480369568
      ],
      "type": "VEC3"
    },
    {
      "bufferView": 1,
      "byteOffset": 1572776,
      "componentType": 5126,
      "count": 65532,
      "max": [
        0.9986069798469543,
        0.9997519850730896
      ],
      "min": [
        0.00023400000645779073,
        0.0036929999478161335
      ],
      "type": "VEC2"
    },
    {
      "bufferView": 0,
      "byteOffset": 3419820,
      "componentType": 5125,
      "count": 260640,
      "type": "SCALAR"
    },
    {
      "bufferView": 2,
      "byteOffset": 6291096,
      "componentType": 5126,
      "count": 65532,
      "max": [
        3.415147066116333,
        -8.166545867919922,
        4.310812950134277
      ],
      "min": [
        -4.133574962615967,
        -14.910388946533203,
        -3.7229349613189697
      ],
      "type": "VEC3"
    },
    {
      "bufferView": 2,
      "byteOffset": 7077480,
      "componentType": 5126,
      "count": 65532,
      "max": [
        0.9999692440032959,
        0.9999254941940308,
        0.9999538660049438
      ],
      "min": [
        -0.9999879002571106,
        -0.9999764561653137,
        -0.9999978542327881
      ],
      "type": "VEC3"
    },
    {
      "bufferView": 1,
      "byteOffset": 2097032,
      "componentType": 5126,
      "count": 65532,
      "max": [
        0.9997149705886841,
        0.9997519850730896
      ],
      "min": [
        0.00023400000645779073,
        0.004759000148624182
      ],
      "type": "VEC2"
    },
    {
      "bufferView": 0,
      "byteOffset": 4462380,
      "componentType": 5125,
      "count": 214404,
      "type": "SCALAR"
    },
    {
      "bufferView": 2,
      "byteOffset": 7863864,
      "componentType": 5126,
      "count": 65532,
      "max": [
        3.413902997970581,
        -8.16998291015625,
        4.306365013122559
      ],
      "min": [
        -4.145781993865967,
        -14.910981178283691,
        -3.724522113800049
      ],
      "type": "VEC3"
    },
    {
      "bufferView": 2,
      "byteOffset": 8650248,
      "componentType": 5126,
      "count": 65532,
      "max": [
        0.9999646544456482,
        0.9993857741355896,
        0.9998480081558228
      ],
      "min": [
        -0.9998041391372681,
        -0.9999764561653137,
        -0.999970018863678
      ],
      "type": "VEC3"
    },
    {
      "bufferView": 1,
      "byteOffset": 2621288,
      "componentType": 5126,
      "count": 65532,
      "max": [
        0.9984809756278992,
        0.9997699856758118
      ],
      "min": [
        0.00022600000374950469,
        0.004863999783992767
      ],
      "type": "VEC2"
    },
    {
      "bufferView": 0,
      "byteOffset": 5319996,
      "componentType": 5125,
      "count": 151416,
      "type": "SCALAR"
    },
    {
      "bufferView": 2,
      "byteOffset": 9436632,
      "componentType": 5126,
      "count": 65534,
      "max": [
        3.415147066116333,
        -8.166545867919922,
        4.306568145751953
      ],
      "min": [
        -4.13346004486084,
        -14.912468910217285,
        -3.7246670722961426
      ],
      "type": "VEC3"
    },
    {
      "bufferView": 2,
      "byteOffset": 10223040,
      "componentType": 5126,
      "count": 65534,
      "max": [
        0.9999841451644897,
        0.9999271035194397,
        0.9999538660049438
      ],
      "min": [
        -0.9999796152114868,
        -0.9999455809593201,
        -0.9999983310699463
      ],
      "type": "VEC3"
    },
    {
      "bufferView": 1,
      "byteOffset": 3145544,
      "componentType": 5126,
      "count": 65534,
      "max": [
        0.9988830089569092,
        0.9997730255126953
      ],
      "min": [
        0.0002280000044265762,
        0.003922999836504459
      ],
      "type": "VEC2"
    },
    {
      "bufferView": 0,
      "byteOffset": 5925660,
      "componentType": 5125,
      "count": 105600,
      "type": "SCALAR"
    },
    {
      "bufferView": 2,
      "byteOffset": 11009448,
      "componentType": 5126,
      "count": 44193,
      "max": [
        3.415147066116333,
        -8.173806190490723,
        4.300673961639404
      ],
      "min": [
        -4.124206066131592,
        -14.912339210510254,
        -3.720958948135376
      ],
      "type": "VEC3"
    },
    {
      "bufferView": 2,
      "byteOffset": 11539764,
      "componentType": 5126,
      "count": 44193,
      "max": [
        0.9999858736991882,
        0.9991553425788879,
        0.9995488524436951
      ],
      "min": [
        -0.9998297691345215,
        -0.9998857378959656,
        -0.9995338916778564
      ],
      "type": "VEC3"
    },
    {
      "bufferView": 1,
      "byteOffset": 3669816,
      "componentType": 5126,
      "count": 44193,
      "max": [
        0.9997569918632507,
        0.999763011932373
      ],
      "min": [
        0.00022699999681208283,
        0.003922999836504459
      ],
      "type": "VEC2"
    },
    {
      "bufferView": 0,
      "byteOffset": 6348060,
      "componentType": 5125,
      "count": 51843,
      "type": "SCALAR"
    }
  ],
  "asset": {
    "extras": {
      "author": "Hamza.Bangash (https://sketchfab.com/Hamza.Bangash)",
      "license": "CC-BY-4.0 (http://creativecommons.org/licenses/by/4.0/)",
      "source": "https://sketchfab.com/3d-models/indus-civilization-ceramics-found-d303c166799e4745b69008b95cc256ca",
      "title": "Indus Civilization Ceramics found"
    },
    "generator": "Sketchfab-10.96.0",
    "version": "2.0"
  },
  "bufferViews": [
    {
      "buffer": 0,
      "byteLength": 6555432,
      "name": "floatBufferViews",
      "target": 34963
    },
    {
      "buffer": 0,
      "byteLength": 4023360,
      "byteOffset": 6555432,
      "byteStride": 8,
      "name": "floatBufferViews",
      "target": 34962
    },
    {
      "buffer": 0,
      "byteLength": 12070080,
      "byteOffset": 10578792,
      "byteStride": 12,
      "name": "floatBufferViews",
      "target": 34962
    }
  ],
  "buffers": [
    {
      "byteLength": 22648872,
      "uri": "scene.bin"
    }
  ],
  "images": [
    {
      "uri": "textures/ind3_baseColor.jpeg"
    }
  ],
  "materials": [
    {
      "doubleSided": true,
      "name": "ind3",
      "pbrMetallicRoughness": {
        "baseColorTexture": {
          "index": 0
        },
        "metallicFactor": 0.0
      }
    }
  ],
  "meshes": [
    {
      "name": "Object_0",
      "primitives": [
        {
          "attributes": {
            "NORMAL": 1,
            "POSITION": 0,
            "TEXCOORD_0": 2
          },
          "indices": 3,
          "material": 0,
          "mode": 4
        }
      ]
    },
    {
      "name": "Object_1",
      "primitives": [
        {
          "attributes": {
            "NORMAL": 5,
            "POSITION": 4,
            "TEXCOORD_0": 6
          },
          "indices": 7,
          "material": 0,
          "mode": 4
        }
      ]
    },
    {
      "name": "Object_2",
      "primitives": [
        {
          "attributes": {
            "NORMAL": 9,
            "POSITION": 8,
            "TEXCOORD_0": 10
          },
          "indices": 11,
          "material": 0,
          "mode": 4
        }
      ]
    },
    {
      "name": "Object_3",
      "primitives": [
        {
          "attributes": {
            "NORMAL": 13,
            "POSITION": 12,
            "TEXCOORD_0": 14
          },
          "indices": 15,
          "material": 0,
          "mode": 4
        }
      ]
    },
    {
      "name": "Object_4",
      "primitives": [
        {
          "attributes": {
            "NORMAL": 17,
            "POSITION": 16,
            "TEXCOORD_0": 18
          },
          "indices": 19,
          "material": 0,
          "mode": 4
        }
      ]
    },
    {
      "name": "Object_5",
      "primitives": [
        {
          "attributes": {
            "NORMAL": 21,
            "POSITION": 20,
            "TEXCOORD_0": 22
          },
          "indices": 23,
          "material": 0,
          "mode": 4
        }
      ]
    },
    {
      "name": "Object_6",
      "primitives": [
        {
          "attributes": {
            "NORMAL": 25,
            "POSITION": 24,
            "TEXCOORD_0": 26
          },
          "indices": 27,
          "material": 0,
          "mode": 4
        }
      ]
    },
    {
      "name": "Object_7",
      "primitives": [
        {
          "attributes": {
            "NORMAL": 29,
            "POSITION": 28,
            "TEXCOORD_0": 30
          },
          "indices": 31,
          "material": 0,
          "mode": 4
        }
      ]
    }
  ],
  "nodes": [
    {
      "children": [
        1
      ],
      "matrix": [
        0.08918899270518921,
        -0.06601312791643467,
        0.07082179942375431,
        0.0,
        -1.461457412302769e-17,
        -0.096292597316733,
        -0.08975451107293966,
        0.0,
        0.09681663314368905,
        0.06081232203729316,
        -0.06524214268736726,
        0.0,
        -0.3341097831726074,
        -8.468668937683107,
        4.014847755432127,
        1.0
      ],
      "name": "Sketchfab_model"
    },
    {
      "children": [
        2,
        3,
        4,
        5,
        6,
        7,
        8,
        9
      ],
      "name": "ind3.obj.cleaner.materialmerger.gles"
    },
    {
      "mesh": 0,
      "name": "Object_2"
    },
    {
      "mesh": 1,
      "name": "Object_3"
    },
    {
      "mesh": 2,
      "name": "Object_4"
    },
    {
      "mesh": 3,
      "name": "Object_5"
    },
    {
      "mesh": 4,
      "name": "Object_6"
    },
    {
      "mesh": 5,
      "name": "Object_7"
    },
    {
      "mesh": 6,
      "name": "Object_8"
    },
    {
      "mesh": 7,
      "name": "Object_9"
    }
  ],
  "samplers": [
    {
      "magFilter": 9729,
      "minFilter": 9987,
      "wrapS": 10497,
      "wrapT": 10497
    }
  ],
  "scene": 0,
  "scenes": [
    {
      "name": "Sketchfab_Scene",
      "nodes": [
        0
      ]
    }
  ],
  "textures": [
    {
      "sampler": 0,
      "source": 0
    }
  ]
}
