<svg id="svg" version="1.1" xmlns="http://www.w3.org/2000/svg" xmlns:xlink="http://www.w3.org/1999/xlink" width="400" height="1300" viewBox="0, 0, 400,1300"><g id="svgg"><path id="path0" d="M160.976 25.745 C 160.976 26.378,160.253 26.558,157.724 26.558 C 155.194 26.558,154.472 26.739,154.472 27.371 C 154.472 27.877,153.960 28.184,153.117 28.184 C 152.273 28.184,151.762 28.491,151.762 28.997 C 151.762 29.539,151.220 29.810,150.136 29.810 C 149.051 29.810,148.509 30.081,148.509 30.623 C 148.509 31.165,147.967 31.436,146.883 31.436 C 145.799 31.436,145.257 31.707,145.257 32.249 C 145.257 32.791,144.715 33.062,143.631 33.062 C 142.737 33.062,142.005 33.306,142.005 33.604 C 142.005 33.902,141.640 34.146,141.192 34.146 C 140.745 34.146,140.379 34.512,140.379 34.959 C 140.379 35.407,140.136 35.772,139.837 35.772 C 139.539 35.772,139.295 36.138,139.295 36.585 C 139.295 37.033,138.930 37.398,138.482 37.398 C 138.035 37.398,137.669 37.764,137.669 38.211 C 137.669 38.814,137.037 39.024,135.230 39.024 C 133.424 39.024,132.791 39.235,132.791 39.837 C 132.791 40.379,132.249 40.650,131.165 40.650 C 130.081 40.650,129.539 40.921,129.539 41.463 C 129.539 41.911,129.173 42.276,128.726 42.276 C 128.279 42.276,127.913 42.642,127.913 43.089 C 127.913 43.537,127.669 43.902,127.371 43.902 C 127.073 43.902,126.829 44.268,126.829 44.715 C 126.829 45.163,126.463 45.528,126.016 45.528 C 125.569 45.528,125.203 45.894,125.203 46.341 C 125.203 46.789,124.837 47.154,124.390 47.154 C 123.943 47.154,123.577 47.398,123.577 47.696 C 123.577 47.995,123.211 48.238,122.764 48.238 C 122.222 48.238,121.951 48.780,121.951 49.864 C 121.951 50.949,121.680 51.491,121.138 51.491 C 120.596 51.491,120.325 52.033,120.325 53.117 C 120.325 54.201,120.054 54.743,119.512 54.743 C 118.888 54.743,118.699 55.435,118.699 57.724 C 118.699 60.012,118.510 60.705,117.886 60.705 C 117.215 60.705,117.073 61.698,117.073 66.396 C 117.073 71.093,116.931 72.087,116.260 72.087 C 115.538 72.087,115.447 136.465,115.447 648.238 C 115.447 1160.012,115.538 1224.390,116.260 1224.390 C 116.919 1224.390,117.073 1225.263,117.073 1228.997 C 117.073 1232.731,117.227 1233.604,117.886 1233.604 C 118.510 1233.604,118.699 1234.297,118.699 1236.585 C 118.699 1238.874,118.888 1239.566,119.512 1239.566 C 120.054 1239.566,120.325 1240.108,120.325 1241.192 C 120.325 1242.276,120.596 1242.818,121.138 1242.818 C 121.680 1242.818,121.951 1243.360,121.951 1244.444 C 121.951 1245.528,122.222 1246.070,122.764 1246.070 C 123.211 1246.070,123.577 1246.436,123.577 1246.883 C 123.577 1247.331,123.943 1247.696,124.390 1247.696 C 124.837 1247.696,125.203 1248.062,125.203 1248.509 C 125.203 1248.957,125.569 1249.322,126.016 1249.322 C 126.463 1249.322,126.829 1249.688,126.829 1250.136 C 126.829 1250.583,127.073 1250.949,127.371 1250.949 C 127.669 1250.949,127.913 1251.314,127.913 1251.762 C 127.913 1252.209,128.279 1252.575,128.726 1252.575 C 129.173 1252.575,129.539 1252.818,129.539 1253.117 C 129.539 1253.415,130.271 1253.659,131.165 1253.659 C 132.249 1253.659,132.791 1253.930,132.791 1254.472 C 132.791 1255.014,133.333 1255.285,134.417 1255.285 C 135.501 1255.285,136.043 1255.556,136.043 1256.098 C 136.043 1256.685,136.646 1256.911,138.211 1256.911 C 139.777 1256.911,140.379 1257.136,140.379 1257.724 C 140.379 1258.326,141.012 1258.537,142.818 1258.537 C 144.625 1258.537,145.257 1258.747,145.257 1259.350 C 145.257 1259.982,145.980 1260.163,148.509 1260.163 C 151.039 1260.163,151.762 1260.343,151.762 1260.976 C 151.762 1261.644,152.725 1261.789,157.182 1261.789 C 161.638 1261.789,162.602 1261.933,162.602 1262.602 C 162.602 1263.049,162.967 1263.415,163.415 1263.415 C 163.862 1263.415,164.228 1263.049,164.228 1262.602 C 164.228 1261.921,165.372 1261.789,171.274 1261.789 C 177.176 1261.789,178.320 1261.657,178.320 1260.976 C 178.320 1260.317,179.193 1260.163,182.927 1260.163 C 186.661 1260.163,187.534 1260.009,187.534 1259.350 C 187.534 1258.747,188.166 1258.537,189.973 1258.537 C 191.780 1258.537,192.412 1258.326,192.412 1257.724 C 192.412 1257.136,193.014 1256.911,194.580 1256.911 C 196.146 1256.911,196.748 1256.685,196.748 1256.098 C 196.748 1255.556,197.290 1255.285,198.374 1255.285 C 199.458 1255.285,200.000 1255.014,200.000 1254.472 C 200.000 1254.024,200.366 1253.659,200.813 1253.659 C 201.260 1253.659,201.626 1253.415,201.626 1253.117 C 201.626 1252.818,201.992 1252.575,202.439 1252.575 C 202.886 1252.575,203.252 1252.209,203.252 1251.762 C 203.252 1251.314,203.618 1250.949,204.065 1250.949 C 204.512 1250.949,204.878 1250.583,204.878 1250.136 C 204.878 1249.688,205.244 1249.322,205.691 1249.322 C 206.138 1249.322,206.504 1248.957,206.504 1248.509 C 206.504 1248.062,206.748 1247.696,207.046 1247.696 C 207.344 1247.696,207.588 1246.965,207.588 1246.070 C 207.588 1244.986,207.859 1244.444,208.401 1244.444 C 209.003 1244.444,209.214 1243.812,209.214 1242.005 C 209.214 1240.199,209.425 1239.566,210.027 1239.566 C 210.686 1239.566,210.840 1238.693,210.840 1234.959 C 210.840 1231.226,210.994 1230.352,211.653 1230.352 C 212.334 1230.352,212.466 1229.208,212.466 1223.306 C 212.466 1217.404,212.598 1216.260,213.279 1216.260 C 214.001 1216.260,214.092 1154.592,214.092 664.499 C 214.092 174.405,214.183 112.737,214.905 112.737 C 215.606 112.737,215.718 110.900,215.718 99.458 C 215.718 88.016,215.606 86.179,214.905 86.179 C 214.273 86.179,214.092 85.456,214.092 82.927 C 214.092 80.397,213.911 79.675,213.279 79.675 C 212.590 79.675,212.466 78.350,212.466 71.003 C 212.466 63.656,212.342 62.331,211.653 62.331 C 211.008 62.331,210.840 61.548,210.840 58.537 C 210.840 55.525,210.672 54.743,210.027 54.743 C 209.425 54.743,209.214 54.110,209.214 52.304 C 209.214 50.497,209.003 49.864,208.401 49.864 C 207.895 49.864,207.588 49.353,207.588 48.509 C 207.588 47.764,207.344 47.154,207.046 47.154 C 206.748 47.154,206.504 46.789,206.504 46.341 C 206.504 45.894,206.138 45.528,205.691 45.528 C 205.244 45.528,204.878 45.163,204.878 44.715 C 204.878 44.268,204.512 43.902,204.065 43.902 C 203.618 43.902,203.252 43.537,203.252 43.089 C 203.252 42.642,202.886 42.276,202.439 42.276 C 201.992 42.276,201.626 41.911,201.626 41.463 C 201.626 40.921,201.084 40.650,200.000 40.650 C 198.916 40.650,198.374 40.379,198.374 39.837 C 198.374 39.295,197.832 39.024,196.748 39.024 C 195.664 39.024,195.122 38.753,195.122 38.211 C 195.122 37.764,194.756 37.398,194.309 37.398 C 193.862 37.398,193.496 37.033,193.496 36.585 C 193.496 36.138,193.252 35.772,192.954 35.772 C 192.656 35.772,192.412 35.407,192.412 34.959 C 192.412 34.417,191.870 34.146,190.786 34.146 C 189.892 34.146,189.160 33.902,189.160 33.604 C 189.160 33.306,188.428 33.062,187.534 33.062 C 186.450 33.062,185.908 32.791,185.908 32.249 C 185.908 31.707,185.366 31.436,184.282 31.436 C 183.198 31.436,182.656 31.165,182.656 30.623 C 182.656 30.036,182.054 29.810,180.488 29.810 C 178.922 29.810,178.320 29.584,178.320 28.997 C 178.320 28.395,177.687 28.184,175.881 28.184 C 174.074 28.184,173.442 27.974,173.442 27.371 C 173.442 26.739,172.719 26.558,170.190 26.558 C 167.660 26.558,166.938 26.378,166.938 25.745 C 166.938 25.121,166.245 24.932,163.957 24.932 C 161.668 24.932,160.976 25.121,160.976 25.745 M166.938 46.341 C 166.938 46.944,167.570 47.154,169.377 47.154 C 170.718 47.154,171.816 47.398,171.816 47.696 C 171.816 47.995,172.913 48.238,174.255 48.238 C 176.061 48.238,176.694 48.449,176.694 49.051 C 176.694 49.593,177.236 49.864,178.320 49.864 C 179.404 49.864,179.946 50.136,179.946 50.678 C 179.946 51.183,180.458 51.491,181.301 51.491 C 182.144 51.491,182.656 51.798,182.656 52.304 C 182.656 52.846,183.198 53.117,184.282 53.117 C 185.366 53.117,185.908 53.388,185.908 53.930 C 185.908 54.472,186.450 54.743,187.534 54.743 C 188.618 54.743,189.160 55.014,189.160 55.556 C 189.160 56.003,189.526 56.369,189.973 56.369 C 190.420 56.369,190.786 56.734,190.786 57.182 C 190.786 57.629,191.152 57.995,191.599 57.995 C 192.046 57.995,192.412 58.256,192.412 58.575 C 192.412 59.326,193.791 60.705,194.541 60.705 C 194.868 60.705,195.122 61.771,195.122 63.144 C 195.122 64.950,195.333 65.583,195.935 65.583 C 196.567 65.583,196.748 66.305,196.748 68.835 C 196.748 71.364,196.929 72.087,197.561 72.087 C 198.206 72.087,198.374 72.870,198.374 75.881 C 198.374 78.892,198.542 79.675,199.187 79.675 C 199.909 79.675,200.000 143.270,200.000 648.780 C 200.000 1154.291,199.909 1217.886,199.187 1217.886 C 198.585 1217.886,198.374 1218.519,198.374 1220.325 C 198.374 1222.132,198.163 1222.764,197.561 1222.764 C 197.019 1222.764,196.748 1223.306,196.748 1224.390 C 196.748 1225.474,196.477 1226.016,195.935 1226.016 C 195.348 1226.016,195.122 1226.618,195.122 1228.184 C 195.122 1229.750,194.896 1230.352,194.309 1230.352 C 193.767 1230.352,193.496 1230.894,193.496 1231.978 C 193.496 1232.873,193.252 1233.604,192.954 1233.604 C 192.656 1233.604,192.412 1234.336,192.412 1235.230 C 192.412 1236.314,192.141 1236.856,191.599 1236.856 C 191.152 1236.856,190.786 1237.222,190.786 1237.669 C 190.786 1238.117,190.420 1238.482,189.973 1238.482 C 189.526 1238.482,189.160 1238.726,189.160 1239.024 C 189.160 1239.322,188.794 1239.566,188.347 1239.566 C 187.900 1239.566,187.534 1239.932,187.534 1240.379 C 187.534 1240.921,186.992 1241.192,185.908 1241.192 C 184.824 1241.192,184.282 1241.463,184.282 1242.005 C 184.282 1242.453,183.916 1242.818,183.469 1242.818 C 183.022 1242.818,182.656 1243.184,182.656 1243.631 C 182.656 1244.219,182.054 1244.444,180.488 1244.444 C 178.922 1244.444,178.320 1244.670,178.320 1245.257 C 178.320 1245.799,177.778 1246.070,176.694 1246.070 C 175.610 1246.070,175.068 1246.341,175.068 1246.883 C 175.068 1247.486,174.435 1247.696,172.629 1247.696 C 170.822 1247.696,170.190 1247.907,170.190 1248.509 C 170.190 1249.134,169.497 1249.322,167.209 1249.322 C 164.920 1249.322,164.228 1249.511,164.228 1250.136 C 164.228 1250.583,163.862 1250.949,163.415 1250.949 C 162.967 1250.949,162.602 1250.583,162.602 1250.136 C 162.602 1249.533,161.969 1249.322,160.163 1249.322 C 158.356 1249.322,157.724 1249.112,157.724 1248.509 C 157.724 1247.967,157.182 1247.696,156.098 1247.696 C 155.014 1247.696,154.472 1247.425,154.472 1246.883 C 154.472 1246.378,153.960 1246.070,153.117 1246.070 C 152.273 1246.070,151.762 1245.763,151.762 1245.257 C 151.762 1244.810,151.396 1244.444,150.949 1244.444 C 150.501 1244.444,150.136 1244.079,150.136 1243.631 C 150.136 1243.089,149.593 1242.818,148.509 1242.818 C 147.425 1242.818,146.883 1242.547,146.883 1242.005 C 146.883 1241.558,146.518 1241.192,146.070 1241.192 C 145.623 1241.192,145.257 1240.827,145.257 1240.379 C 145.257 1239.932,144.892 1239.566,144.444 1239.566 C 143.997 1239.566,143.631 1239.322,143.631 1239.024 C 143.631 1238.726,143.266 1238.482,142.818 1238.482 C 142.276 1238.482,142.005 1237.940,142.005 1236.856 C 142.005 1235.772,141.734 1235.230,141.192 1235.230 C 140.650 1235.230,140.379 1234.688,140.379 1233.604 C 140.379 1232.710,140.136 1231.978,139.837 1231.978 C 139.539 1231.978,139.295 1231.247,139.295 1230.352 C 139.295 1229.268,139.024 1228.726,138.482 1228.726 C 137.977 1228.726,137.669 1228.214,137.669 1227.371 C 137.669 1226.528,137.362 1226.016,136.856 1226.016 C 136.314 1226.016,136.043 1225.474,136.043 1224.390 C 136.043 1223.306,135.772 1222.764,135.230 1222.764 C 134.628 1222.764,134.417 1222.132,134.417 1220.325 C 134.417 1218.519,134.207 1217.886,133.604 1217.886 C 132.929 1217.886,132.791 1216.832,132.791 1211.653 C 132.791 1206.474,132.654 1205.420,131.978 1205.420 C 131.256 1205.420,131.165 1142.969,131.165 646.612 C 131.165 150.256,131.256 87.805,131.978 87.805 C 132.629 87.805,132.791 86.992,132.791 83.740 C 132.791 80.488,132.954 79.675,133.604 79.675 C 134.228 79.675,134.417 78.982,134.417 76.694 C 134.417 74.405,134.606 73.713,135.230 73.713 C 135.863 73.713,136.043 72.990,136.043 70.461 C 136.043 67.931,136.224 67.209,136.856 67.209 C 137.459 67.209,137.669 66.576,137.669 64.770 C 137.669 62.963,137.880 62.331,138.482 62.331 C 138.930 62.331,139.295 62.069,139.295 61.750 C 139.295 61.000,140.674 59.621,141.425 59.621 C 141.744 59.621,142.005 59.255,142.005 58.808 C 142.005 58.360,142.371 57.995,142.818 57.995 C 143.266 57.995,143.631 57.629,143.631 57.182 C 143.631 56.734,143.997 56.369,144.444 56.369 C 144.892 56.369,145.257 56.003,145.257 55.556 C 145.257 55.108,145.623 54.743,146.070 54.743 C 146.518 54.743,146.883 54.377,146.883 53.930 C 146.883 53.482,147.249 53.117,147.696 53.117 C 148.144 53.117,148.509 52.751,148.509 52.304 C 148.509 51.762,149.051 51.491,150.136 51.491 C 151.220 51.491,151.762 51.220,151.762 50.678 C 151.762 50.172,152.273 49.864,153.117 49.864 C 153.960 49.864,154.472 49.557,154.472 49.051 C 154.472 48.509,155.014 48.238,156.098 48.238 C 156.992 48.238,157.724 47.995,157.724 47.696 C 157.724 47.398,158.455 47.154,159.350 47.154 C 160.434 47.154,160.976 46.883,160.976 46.341 C 160.976 45.717,161.668 45.528,163.957 45.528 C 166.245 45.528,166.938 45.717,166.938 46.341 " stroke="none" fill="#dcdcdc" fill-rule="evenodd"></path><path id="path1" d="M162.602 67.209 C 162.602 68.293,162.331 68.835,161.789 68.835 C 161.247 68.835,160.976 69.377,160.976 70.461 C 160.976 71.545,160.705 72.087,160.163 72.087 C 159.575 72.087,159.350 72.689,159.350 74.255 C 159.350 75.821,159.124 76.423,158.537 76.423 C 157.995 76.423,157.724 76.965,157.724 78.049 C 157.724 79.133,157.453 79.675,156.911 79.675 C 156.308 79.675,156.098 80.307,156.098 82.114 C 156.098 83.921,155.887 84.553,155.285 84.553 C 154.562 84.553,154.472 147.696,154.472 649.593 C 154.472 1151.491,154.562 1214.634,155.285 1214.634 C 155.827 1214.634,156.098 1215.176,156.098 1216.260 C 156.098 1217.344,156.369 1217.886,156.911 1217.886 C 157.358 1217.886,157.724 1218.252,157.724 1218.699 C 157.724 1219.146,158.089 1219.512,158.537 1219.512 C 159.079 1219.512,159.350 1220.054,159.350 1221.138 C 159.350 1222.222,159.621 1222.764,160.163 1222.764 C 160.610 1222.764,160.976 1223.130,160.976 1223.577 C 160.976 1224.024,161.341 1224.390,161.789 1224.390 C 162.294 1224.390,162.602 1224.902,162.602 1225.745 C 162.602 1226.588,162.909 1227.100,163.415 1227.100 C 163.862 1227.100,164.228 1226.856,164.228 1226.558 C 164.228 1226.260,164.593 1226.016,165.041 1226.016 C 165.488 1226.016,165.854 1225.650,165.854 1225.203 C 165.854 1224.756,166.098 1224.390,166.396 1224.390 C 166.694 1224.390,166.938 1224.024,166.938 1223.577 C 166.938 1223.130,167.304 1222.764,167.751 1222.764 C 168.198 1222.764,168.564 1222.398,168.564 1221.951 C 168.564 1221.504,168.930 1221.138,169.377 1221.138 C 169.824 1221.138,170.190 1220.772,170.190 1220.325 C 170.190 1219.878,170.556 1219.512,171.003 1219.512 C 171.450 1219.512,171.816 1219.146,171.816 1218.699 C 171.816 1218.252,172.182 1217.886,172.629 1217.886 C 173.076 1217.886,173.442 1217.520,173.442 1217.073 C 173.442 1216.626,173.808 1216.260,174.255 1216.260 C 174.879 1216.260,175.068 1215.568,175.068 1213.279 C 175.068 1210.991,175.257 1210.298,175.881 1210.298 C 176.603 1210.298,176.694 1147.486,176.694 648.238 C 176.694 148.991,176.603 86.179,175.881 86.179 C 175.339 86.179,175.068 85.637,175.068 84.553 C 175.068 83.469,174.797 82.927,174.255 82.927 C 173.808 82.927,173.442 82.561,173.442 82.114 C 173.442 81.667,173.076 81.301,172.629 81.301 C 172.087 81.301,171.816 80.759,171.816 79.675 C 171.816 78.591,171.545 78.049,171.003 78.049 C 170.461 78.049,170.190 77.507,170.190 76.423 C 170.190 75.339,169.919 74.797,169.377 74.797 C 168.930 74.797,168.564 74.553,168.564 74.255 C 168.564 73.957,168.198 73.713,167.751 73.713 C 167.209 73.713,166.938 73.171,166.938 72.087 C 166.938 71.192,166.694 70.461,166.396 70.461 C 166.098 70.461,165.854 70.095,165.854 69.648 C 165.854 69.201,165.488 68.835,165.041 68.835 C 164.499 68.835,164.228 68.293,164.228 67.209 C 164.228 66.125,163.957 65.583,163.415 65.583 C 162.873 65.583,162.602 66.125,162.602 67.209 " stroke="none" fill="#040404" fill-rule="evenodd"></path><path id="path2" d="M160.976 46.341 C 160.976 46.883,160.434 47.154,159.350 47.154 C 158.455 47.154,157.724 47.398,157.724 47.696 C 157.724 47.995,156.992 48.238,156.098 48.238 C 155.014 48.238,154.472 48.509,154.472 49.051 C 154.472 49.557,153.960 49.864,153.117 49.864 C 152.273 49.864,151.762 50.172,151.762 50.678 C 151.762 51.220,151.220 51.491,150.136 51.491 C 149.051 51.491,148.509 51.762,148.509 52.304 C 148.509 52.751,148.144 53.117,147.696 53.117 C 147.249 53.117,146.883 53.482,146.883 53.930 C 146.883 54.377,146.518 54.743,146.070 54.743 C 145.623 54.743,145.257 55.108,145.257 55.556 C 145.257 56.003,144.892 56.369,144.444 56.369 C 143.997 56.369,143.631 56.734,143.631 57.182 C 143.631 57.629,143.266 57.995,142.818 57.995 C 142.371 57.995,142.005 58.360,142.005 58.808 C 142.005 59.255,141.744 59.621,141.425 59.621 C 140.674 59.621,139.295 61.000,139.295 61.750 C 139.295 62.069,138.930 62.331,138.482 62.331 C 137.880 62.331,137.669 62.963,137.669 64.770 C 137.669 66.576,137.459 67.209,136.856 67.209 C 136.224 67.209,136.043 67.931,136.043 70.461 C 136.043 72.990,135.863 73.713,135.230 73.713 C 134.606 73.713,134.417 74.405,134.417 76.694 C 134.417 78.982,134.228 79.675,133.604 79.675 C 132.954 79.675,132.791 80.488,132.791 83.740 C 132.791 86.992,132.629 87.805,131.978 87.805 C 131.256 87.805,131.165 150.256,131.165 646.612 C 131.165 1142.969,131.256 1205.420,131.978 1205.420 C 132.654 1205.420,132.791 1206.474,132.791 1211.653 C 132.791 1216.832,132.929 1217.886,133.604 1217.886 C 134.207 1217.886,134.417 1218.519,134.417 1220.325 C 134.417 1222.132,134.628 1222.764,135.230 1222.764 C 135.772 1222.764,136.043 1223.306,136.043 1224.390 C 136.043 1225.474,136.314 1226.016,136.856 1226.016 C 137.362 1226.016,137.669 1226.528,137.669 1227.371 C 137.669 1228.214,137.977 1228.726,138.482 1228.726 C 139.024 1228.726,139.295 1229.268,139.295 1230.352 C 139.295 1231.247,139.539 1231.978,139.837 1231.978 C 140.136 1231.978,140.379 1232.710,140.379 1233.604 C 140.379 1234.688,140.650 1235.230,141.192 1235.230 C 141.734 1235.230,142.005 1235.772,142.005 1236.856 C 142.005 1237.940,142.276 1238.482,142.818 1238.482 C 143.266 1238.482,143.631 1238.726,143.631 1239.024 C 143.631 1239.322,143.997 1239.566,144.444 1239.566 C 144.892 1239.566,145.257 1239.932,145.257 1240.379 C 145.257 1240.827,145.623 1241.192,146.070 1241.192 C 146.518 1241.192,146.883 1241.558,146.883 1242.005 C 146.883 1242.547,147.425 1242.818,148.509 1242.818 C 149.593 1242.818,150.136 1243.089,150.136 1243.631 C 150.136 1244.079,150.501 1244.444,150.949 1244.444 C 151.396 1244.444,151.762 1244.810,151.762 1245.257 C 151.762 1245.763,152.273 1246.070,153.117 1246.070 C 153.960 1246.070,154.472 1246.378,154.472 1246.883 C 154.472 1247.425,155.014 1247.696,156.098 1247.696 C 157.182 1247.696,157.724 1247.967,157.724 1248.509 C 157.724 1249.112,158.356 1249.322,160.163 1249.322 C 161.969 1249.322,162.602 1249.533,162.602 1250.136 C 162.602 1250.583,162.967 1250.949,163.415 1250.949 C 163.862 1250.949,164.228 1250.583,164.228 1250.136 C 164.228 1249.511,164.920 1249.322,167.209 1249.322 C 169.497 1249.322,170.190 1249.134,170.190 1248.509 C 170.190 1247.907,170.822 1247.696,172.629 1247.696 C 174.435 1247.696,175.068 1247.486,175.068 1246.883 C 175.068 1246.341,175.610 1246.070,176.694 1246.070 C 177.778 1246.070,178.320 1245.799,178.320 1245.257 C 178.320 1244.670,178.922 1244.444,180.488 1244.444 C 182.054 1244.444,182.656 1244.219,182.656 1243.631 C 182.656 1243.184,183.022 1242.818,183.469 1242.818 C 183.916 1242.818,184.282 1242.453,184.282 1242.005 C 184.282 1241.463,184.824 1241.192,185.908 1241.192 C 186.992 1241.192,187.534 1240.921,187.534 1240.379 C 187.534 1239.932,187.900 1239.566,188.347 1239.566 C 188.794 1239.566,189.160 1239.322,189.160 1239.024 C 189.160 1238.726,189.526 1238.482,189.973 1238.482 C 190.420 1238.482,190.786 1238.117,190.786 1237.669 C 190.786 1237.222,191.152 1236.856,191.599 1236.856 C 192.141 1236.856,192.412 1236.314,192.412 1235.230 C 192.412 1234.336,192.656 1233.604,192.954 1233.604 C 193.252 1233.604,193.496 1232.873,193.496 1231.978 C 193.496 1230.894,193.767 1230.352,194.309 1230.352 C 194.896 1230.352,195.122 1229.750,195.122 1228.184 C 195.122 1226.618,195.348 1226.016,195.935 1226.016 C 196.477 1226.016,196.748 1225.474,196.748 1224.390 C 196.748 1223.306,197.019 1222.764,197.561 1222.764 C 198.163 1222.764,198.374 1222.132,198.374 1220.325 C 198.374 1218.519,198.585 1217.886,199.187 1217.886 C 199.909 1217.886,200.000 1154.291,200.000 648.780 C 200.000 143.270,199.909 79.675,199.187 79.675 C 198.542 79.675,198.374 78.892,198.374 75.881 C 198.374 72.870,198.206 72.087,197.561 72.087 C 196.929 72.087,196.748 71.364,196.748 68.835 C 196.748 66.305,196.567 65.583,195.935 65.583 C 195.333 65.583,195.122 64.950,195.122 63.144 C 195.122 61.771,194.868 60.705,194.541 60.705 C 193.791 60.705,192.412 59.326,192.412 58.575 C 192.412 58.256,192.046 57.995,191.599 57.995 C 191.152 57.995,190.786 57.629,190.786 57.182 C 190.786 56.734,190.420 56.369,189.973 56.369 C 189.526 56.369,189.160 56.003,189.160 55.556 C 189.160 55.014,188.618 54.743,187.534 54.743 C 186.450 54.743,185.908 54.472,185.908 53.930 C 185.908 53.388,185.366 53.117,184.282 53.117 C 183.198 53.117,182.656 52.846,182.656 52.304 C 182.656 51.798,182.144 51.491,181.301 51.491 C 180.458 51.491,179.946 51.183,179.946 50.678 C 179.946 50.136,179.404 49.864,178.320 49.864 C 177.236 49.864,176.694 49.593,176.694 49.051 C 176.694 48.449,176.061 48.238,174.255 48.238 C 172.913 48.238,171.816 47.995,171.816 47.696 C 171.816 47.398,170.718 47.154,169.377 47.154 C 167.570 47.154,166.938 46.944,166.938 46.341 C 166.938 45.717,166.245 45.528,163.957 45.528 C 161.668 45.528,160.976 45.717,160.976 46.341 M164.228 67.209 C 164.228 68.293,164.499 68.835,165.041 68.835 C 165.488 68.835,165.854 69.201,165.854 69.648 C 165.854 70.095,166.098 70.461,166.396 70.461 C 166.694 70.461,166.938 71.192,166.938 72.087 C 166.938 73.171,167.209 73.713,167.751 73.713 C 168.198 73.713,168.564 73.957,168.564 74.255 C 168.564 74.553,168.930 74.797,169.377 74.797 C 169.919 74.797,170.190 75.339,170.190 76.423 C 170.190 77.507,170.461 78.049,171.003 78.049 C 171.545 78.049,171.816 78.591,171.816 79.675 C 171.816 80.759,172.087 81.301,172.629 81.301 C 173.076 81.301,173.442 81.667,173.442 82.114 C 173.442 82.561,173.808 82.927,174.255 82.927 C 174.797 82.927,175.068 83.469,175.068 84.553 C 175.068 85.637,175.339 86.179,175.881 86.179 C 176.603 86.179,176.694 148.991,176.694 648.238 C 176.694 1147.486,176.603 1210.298,175.881 1210.298 C 175.257 1210.298,175.068 1210.991,175.068 1213.279 C 175.068 1215.568,174.879 1216.260,174.255 1216.260 C 173.808 1216.260,173.442 1216.626,173.442 1217.073 C 173.442 1217.520,173.076 1217.886,172.629 1217.886 C 172.182 1217.886,171.816 1218.252,171.816 1218.699 C 171.816 1219.146,171.450 1219.512,171.003 1219.512 C 170.556 1219.512,170.190 1219.878,170.190 1220.325 C 170.190 1220.772,169.824 1221.138,169.377 1221.138 C 168.930 1221.138,168.564 1221.504,168.564 1221.951 C 168.564 1222.398,168.198 1222.764,167.751 1222.764 C 167.304 1222.764,166.938 1223.130,166.938 1223.577 C 166.938 1224.024,166.694 1224.390,166.396 1224.390 C 166.098 1224.390,165.854 1224.756,165.854 1225.203 C 165.854 1225.650,165.488 1226.016,165.041 1226.016 C 164.593 1226.016,164.228 1226.260,164.228 1226.558 C 164.228 1226.856,163.862 1227.100,163.415 1227.100 C 162.909 1227.100,162.602 1226.588,162.602 1225.745 C 162.602 1224.902,162.294 1224.390,161.789 1224.390 C 161.341 1224.390,160.976 1224.024,160.976 1223.577 C 160.976 1223.130,160.610 1222.764,160.163 1222.764 C 159.621 1222.764,159.350 1222.222,159.350 1221.138 C 159.350 1220.054,159.079 1219.512,158.537 1219.512 C 158.089 1219.512,157.724 1219.146,157.724 1218.699 C 157.724 1218.252,157.358 1217.886,156.911 1217.886 C 156.369 1217.886,156.098 1217.344,156.098 1216.260 C 156.098 1215.176,155.827 1214.634,155.285 1214.634 C 154.562 1214.634,154.472 1151.491,154.472 649.593 C 154.472 147.696,154.562 84.553,155.285 84.553 C 155.887 84.553,156.098 83.921,156.098 82.114 C 156.098 80.307,156.308 79.675,156.911 79.675 C 157.453 79.675,157.724 79.133,157.724 78.049 C 157.724 76.965,157.995 76.423,158.537 76.423 C 159.124 76.423,159.350 75.821,159.350 74.255 C 159.350 72.689,159.575 72.087,160.163 72.087 C 160.705 72.087,160.976 71.545,160.976 70.461 C 160.976 69.377,161.247 68.835,161.789 68.835 C 162.331 68.835,162.602 68.293,162.602 67.209 C 162.602 66.125,162.873 65.583,163.415 65.583 C 163.957 65.583,164.228 66.125,164.228 67.209 " stroke="none" fill="#545454" fill-rule="evenodd"></path><path id="path3" d="M159.350 22.493 C 159.350 23.117,158.657 23.306,156.369 23.306 C 154.080 23.306,153.388 23.495,153.388 24.119 C 153.388 24.721,152.755 24.932,150.949 24.932 C 149.142 24.932,148.509 25.143,148.509 25.745 C 148.509 26.347,147.877 26.558,146.070 26.558 C 144.264 26.558,143.631 26.769,143.631 27.371 C 143.631 27.818,143.266 28.184,142.818 28.184 C 142.371 28.184,142.005 28.550,142.005 28.997 C 142.005 29.503,141.494 29.810,140.650 29.810 C 139.807 29.810,139.295 30.117,139.295 30.623 C 139.295 31.165,138.753 31.436,137.669 31.436 C 136.585 31.436,136.043 31.707,136.043 32.249 C 136.043 32.696,135.678 33.062,135.230 33.062 C 134.783 33.062,134.417 33.306,134.417 33.604 C 134.417 33.902,134.051 34.146,133.604 34.146 C 133.157 34.146,132.791 34.512,132.791 34.959 C 132.791 35.501,132.249 35.772,131.165 35.772 C 129.720 35.772,129.539 35.953,129.539 37.398 C 129.539 38.771,129.329 39.024,128.184 39.024 C 127.341 39.024,126.829 39.332,126.829 39.837 C 126.829 40.379,126.287 40.650,125.203 40.650 C 124.119 40.650,123.577 40.921,123.577 41.463 C 123.577 41.911,123.211 42.276,122.764 42.276 C 122.222 42.276,121.951 42.818,121.951 43.902 C 121.951 44.986,121.680 45.528,121.138 45.528 C 120.691 45.528,120.325 45.894,120.325 46.341 C 120.325 46.789,119.959 47.154,119.512 47.154 C 118.925 47.154,118.699 47.757,118.699 49.322 C 118.699 50.888,118.473 51.491,117.886 51.491 C 117.284 51.491,117.073 52.123,117.073 53.930 C 117.073 55.736,116.862 56.369,116.260 56.369 C 115.601 56.369,115.447 57.242,115.447 60.976 C 115.447 64.709,115.293 65.583,114.634 65.583 C 113.912 65.583,113.821 130.653,113.821 647.967 C 113.821 1165.282,113.912 1230.352,114.634 1230.352 C 115.293 1230.352,115.447 1231.226,115.447 1234.959 C 115.447 1238.693,115.601 1239.566,116.260 1239.566 C 116.862 1239.566,117.073 1240.199,117.073 1242.005 C 117.073 1243.812,117.284 1244.444,117.886 1244.444 C 118.428 1244.444,118.699 1244.986,118.699 1246.070 C 118.699 1247.154,118.970 1247.696,119.512 1247.696 C 119.959 1247.696,120.325 1248.062,120.325 1248.509 C 120.325 1248.957,120.691 1249.322,121.138 1249.322 C 121.680 1249.322,121.951 1249.864,121.951 1250.949 C 121.951 1252.033,122.222 1252.575,122.764 1252.575 C 123.211 1252.575,123.577 1252.818,123.577 1253.117 C 123.577 1253.415,124.309 1253.659,125.203 1253.659 C 126.287 1253.659,126.829 1253.930,126.829 1254.472 C 126.829 1254.977,127.341 1255.285,128.184 1255.285 C 129.027 1255.285,129.539 1255.592,129.539 1256.098 C 129.539 1256.640,130.081 1256.911,131.165 1256.911 C 132.249 1256.911,132.791 1257.182,132.791 1257.724 C 132.791 1258.326,133.424 1258.537,135.230 1258.537 C 137.037 1258.537,137.669 1258.747,137.669 1259.350 C 137.669 1259.974,138.362 1260.163,140.650 1260.163 C 142.939 1260.163,143.631 1260.351,143.631 1260.976 C 143.631 1261.626,144.444 1261.789,147.696 1261.789 C 150.949 1261.789,151.762 1261.951,151.762 1262.602 C 151.762 1263.270,152.725 1263.415,157.182 1263.415 C 161.638 1263.415,162.602 1263.270,162.602 1262.602 C 162.602 1261.933,161.638 1261.789,157.182 1261.789 C 152.725 1261.789,151.762 1261.644,151.762 1260.976 C 151.762 1260.343,151.039 1260.163,148.509 1260.163 C 145.980 1260.163,145.257 1259.982,145.257 1259.350 C 145.257 1258.747,144.625 1258.537,142.818 1258.537 C 141.012 1258.537,140.379 1258.326,140.379 1257.724 C 140.379 1257.136,139.777 1256.911,138.211 1256.911 C 136.646 1256.911,136.043 1256.685,136.043 1256.098 C 136.043 1255.556,135.501 1255.285,134.417 1255.285 C 133.333 1255.285,132.791 1255.014,132.791 1254.472 C 132.791 1253.930,132.249 1253.659,131.165 1253.659 C 130.271 1253.659,129.539 1253.415,129.539 1253.117 C 129.539 1252.818,129.173 1252.575,128.726 1252.575 C 128.279 1252.575,127.913 1252.209,127.913 1251.762 C 127.913 1251.314,127.669 1250.949,127.371 1250.949 C 127.073 1250.949,126.829 1250.583,126.829 1250.136 C 126.829 1249.688,126.463 1249.322,126.016 1249.322 C 125.569 1249.322,125.203 1248.957,125.203 1248.509 C 125.203 1248.062,124.837 1247.696,124.390 1247.696 C 123.943 1247.696,123.577 1247.331,123.577 1246.883 C 123.577 1246.436,123.211 1246.070,122.764 1246.070 C 122.222 1246.070,121.951 1245.528,121.951 1244.444 C 121.951 1243.360,121.680 1242.818,121.138 1242.818 C 120.596 1242.818,120.325 1242.276,120.325 1241.192 C 120.325 1240.108,120.054 1239.566,119.512 1239.566 C 118.888 1239.566,118.699 1238.874,118.699 1236.585 C 118.699 1234.297,118.510 1233.604,117.886 1233.604 C 117.227 1233.604,117.073 1232.731,117.073 1228.997 C 117.073 1225.263,116.919 1224.390,116.260 1224.390 C 115.538 1224.390,115.447 1160.012,115.447 648.238 C 115.447 136.465,115.538 72.087,116.260 72.087 C 116.931 72.087,117.073 71.093,117.073 66.396 C 117.073 61.698,117.215 60.705,117.886 60.705 C 118.510 60.705,118.699 60.012,118.699 57.724 C 118.699 55.435,118.888 54.743,119.512 54.743 C 120.054 54.743,120.325 54.201,120.325 53.117 C 120.325 52.033,120.596 51.491,121.138 51.491 C 121.680 51.491,121.951 50.949,121.951 49.864 C 121.951 48.780,122.222 48.238,122.764 48.238 C 123.211 48.238,123.577 47.995,123.577 47.696 C 123.577 47.398,123.943 47.154,124.390 47.154 C 124.837 47.154,125.203 46.789,125.203 46.341 C 125.203 45.894,125.569 45.528,126.016 45.528 C 126.463 45.528,126.829 45.163,126.829 44.715 C 126.829 44.268,127.073 43.902,127.371 43.902 C 127.669 43.902,127.913 43.537,127.913 43.089 C 127.913 42.642,128.279 42.276,128.726 42.276 C 129.173 42.276,129.539 41.911,129.539 41.463 C 129.539 40.921,130.081 40.650,131.165 40.650 C 132.249 40.650,132.791 40.379,132.791 39.837 C 132.791 39.235,133.424 39.024,135.230 39.024 C 137.037 39.024,137.669 38.814,137.669 38.211 C 137.669 37.764,138.035 37.398,138.482 37.398 C 138.930 37.398,139.295 37.033,139.295 36.585 C 139.295 36.138,139.539 35.772,139.837 35.772 C 140.136 35.772,140.379 35.407,140.379 34.959 C 140.379 34.512,140.745 34.146,141.192 34.146 C 141.640 34.146,142.005 33.902,142.005 33.604 C 142.005 33.306,142.737 33.062,143.631 33.062 C 144.715 33.062,145.257 32.791,145.257 32.249 C 145.257 31.707,145.799 31.436,146.883 31.436 C 147.967 31.436,148.509 31.165,148.509 30.623 C 148.509 30.081,149.051 29.810,150.136 29.810 C 151.220 29.810,151.762 29.539,151.762 28.997 C 151.762 28.491,152.273 28.184,153.117 28.184 C 153.960 28.184,154.472 27.877,154.472 27.371 C 154.472 26.739,155.194 26.558,157.724 26.558 C 160.253 26.558,160.976 26.378,160.976 25.745 C 160.976 25.121,161.668 24.932,163.957 24.932 C 166.245 24.932,166.938 25.121,166.938 25.745 C 166.938 26.378,167.660 26.558,170.190 26.558 C 172.719 26.558,173.442 26.739,173.442 27.371 C 173.442 27.974,174.074 28.184,175.881 28.184 C 177.687 28.184,178.320 28.395,178.320 28.997 C 178.320 29.584,178.922 29.810,180.488 29.810 C 182.054 29.810,182.656 30.036,182.656 30.623 C 182.656 31.165,183.198 31.436,184.282 31.436 C 185.366 31.436,185.908 31.707,185.908 32.249 C 185.908 32.791,186.450 33.062,187.534 33.062 C 188.428 33.062,189.160 33.306,189.160 33.604 C 189.160 33.902,189.892 34.146,190.786 34.146 C 191.870 34.146,192.412 34.417,192.412 34.959 C 192.412 35.407,192.656 35.772,192.954 35.772 C 193.252 35.772,193.496 36.138,193.496 36.585 C 193.496 37.033,193.862 37.398,194.309 37.398 C 194.756 37.398,195.122 37.764,195.122 38.211 C 195.122 38.753,195.664 39.024,196.748 39.024 C 197.832 39.024,198.374 39.295,198.374 39.837 C 198.374 40.379,198.916 40.650,200.000 40.650 C 201.084 40.650,201.626 40.921,201.626 41.463 C 201.626 41.911,201.992 42.276,202.439 42.276 C 202.886 42.276,203.252 42.642,203.252 43.089 C 203.252 43.537,203.618 43.902,204.065 43.902 C 204.512 43.902,204.878 44.268,204.878 44.715 C 204.878 45.163,205.244 45.528,205.691 45.528 C 206.138 45.528,206.504 45.894,206.504 46.341 C 206.504 46.789,206.748 47.154,207.046 47.154 C 207.344 47.154,207.588 47.764,207.588 48.509 C 207.588 49.353,207.895 49.864,208.401 49.864 C 209.003 49.864,209.214 50.497,209.214 52.304 C 209.214 54.110,209.425 54.743,210.027 54.743 C 210.672 54.743,210.840 55.525,210.840 58.537 C 210.840 61.548,211.008 62.331,211.653 62.331 C 212.342 62.331,212.466 63.656,212.466 71.003 C 212.466 78.350,212.590 79.675,213.279 79.675 C 213.911 79.675,214.092 80.397,214.092 82.927 C 214.092 85.456,214.273 86.179,214.905 86.179 C 215.606 86.179,215.718 88.016,215.718 99.458 C 215.718 110.900,215.606 112.737,214.905 112.737 C 214.183 112.737,214.092 174.405,214.092 664.499 C 214.092 1154.592,214.001 1216.260,213.279 1216.260 C 212.598 1216.260,212.466 1217.404,212.466 1223.306 C 212.466 1229.208,212.334 1230.352,211.653 1230.352 C 210.994 1230.352,210.840 1231.226,210.840 1234.959 C 210.840 1238.693,210.686 1239.566,210.027 1239.566 C 209.425 1239.566,209.214 1240.199,209.214 1242.005 C 209.214 1243.812,209.003 1244.444,208.401 1244.444 C 207.859 1244.444,207.588 1244.986,207.588 1246.070 C 207.588 1246.965,207.344 1247.696,207.046 1247.696 C 206.748 1247.696,206.504 1248.062,206.504 1248.509 C 206.504 1248.957,206.138 1249.322,205.691 1249.322 C 205.244 1249.322,204.878 1249.688,204.878 1250.136 C 204.878 1250.583,204.512 1250.949,204.065 1250.949 C 203.618 1250.949,203.252 1251.314,203.252 1251.762 C 203.252 1252.209,202.886 1252.575,202.439 1252.575 C 201.992 1252.575,201.626 1252.818,201.626 1253.117 C 201.626 1253.415,201.260 1253.659,200.813 1253.659 C 200.366 1253.659,200.000 1254.024,200.000 1254.472 C 200.000 1255.014,199.458 1255.285,198.374 1255.285 C 197.290 1255.285,196.748 1255.556,196.748 1256.098 C 196.748 1256.685,196.146 1256.911,194.580 1256.911 C 193.014 1256.911,192.412 1257.136,192.412 1257.724 C 192.412 1258.326,191.780 1258.537,189.973 1258.537 C 188.166 1258.537,187.534 1258.747,187.534 1259.350 C 187.534 1260.009,186.661 1260.163,182.927 1260.163 C 179.193 1260.163,178.320 1260.317,178.320 1260.976 C 178.320 1261.657,177.176 1261.789,171.274 1261.789 C 165.372 1261.789,164.228 1261.921,164.228 1262.602 C 164.228 1263.287,165.462 1263.415,172.087 1263.415 C 178.711 1263.415,179.946 1263.287,179.946 1262.602 C 179.946 1261.943,180.819 1261.789,184.553 1261.789 C 188.287 1261.789,189.160 1261.635,189.160 1260.976 C 189.160 1260.351,189.852 1260.163,192.141 1260.163 C 194.429 1260.163,195.122 1259.974,195.122 1259.350 C 195.122 1258.747,195.754 1258.537,197.561 1258.537 C 199.368 1258.537,200.000 1258.326,200.000 1257.724 C 200.000 1257.182,200.542 1256.911,201.626 1256.911 C 202.710 1256.911,203.252 1256.640,203.252 1256.098 C 203.252 1255.650,203.618 1255.285,204.065 1255.285 C 204.512 1255.285,204.878 1254.919,204.878 1254.472 C 204.878 1254.024,205.139 1253.659,205.459 1253.659 C 206.209 1253.659,207.588 1252.280,207.588 1251.529 C 207.588 1251.210,207.954 1250.949,208.401 1250.949 C 208.943 1250.949,209.214 1250.407,209.214 1249.322 C 209.214 1248.238,209.485 1247.696,210.027 1247.696 C 210.629 1247.696,210.840 1247.064,210.840 1245.257 C 210.840 1243.451,211.051 1242.818,211.653 1242.818 C 212.298 1242.818,212.466 1242.036,212.466 1239.024 C 212.466 1236.013,212.634 1235.230,213.279 1235.230 C 213.881 1235.230,214.092 1234.598,214.092 1232.791 C 214.092 1230.985,214.303 1230.352,214.905 1230.352 C 215.447 1230.352,215.718 1229.810,215.718 1228.726 C 215.718 1227.642,215.989 1227.100,216.531 1227.100 C 217.118 1227.100,217.344 1226.498,217.344 1224.932 C 217.344 1223.366,217.570 1222.764,218.157 1222.764 C 218.759 1222.764,218.970 1222.132,218.970 1220.325 C 218.970 1218.984,219.214 1217.886,219.512 1217.886 C 219.873 1217.886,220.054 1033.333,220.054 665.312 C 220.054 174.496,220.145 112.737,220.867 112.737 C 221.568 112.737,221.680 110.900,221.680 99.458 C 221.680 88.016,221.568 86.179,220.867 86.179 C 220.217 86.179,220.054 85.366,220.054 82.114 C 220.054 79.765,219.825 78.049,219.512 78.049 C 219.214 78.049,218.970 76.707,218.970 75.068 C 218.970 72.779,218.781 72.087,218.157 72.087 C 217.555 72.087,217.344 71.454,217.344 69.648 C 217.344 67.841,217.133 67.209,216.531 67.209 C 215.929 67.209,215.718 66.576,215.718 64.770 C 215.718 62.963,215.507 62.331,214.905 62.331 C 214.399 62.331,214.092 61.819,214.092 60.976 C 214.092 60.132,213.785 59.621,213.279 59.621 C 212.629 59.621,212.466 58.808,212.466 55.556 C 212.466 52.304,212.304 51.491,211.653 51.491 C 211.066 51.491,210.840 50.888,210.840 49.322 C 210.840 47.757,210.614 47.154,210.027 47.154 C 209.485 47.154,209.214 46.612,209.214 45.528 C 209.214 44.444,208.943 43.902,208.401 43.902 C 207.954 43.902,207.588 43.537,207.588 43.089 C 207.588 42.642,207.344 42.276,207.046 42.276 C 206.748 42.276,206.504 41.911,206.504 41.463 C 206.504 41.016,206.138 40.650,205.691 40.650 C 205.244 40.650,204.878 40.285,204.878 39.837 C 204.878 39.390,204.512 39.024,204.065 39.024 C 203.618 39.024,203.252 38.659,203.252 38.211 C 203.252 37.764,202.886 37.398,202.439 37.398 C 201.992 37.398,201.626 37.033,201.626 36.585 C 201.626 36.138,201.260 35.772,200.813 35.772 C 200.366 35.772,200.000 35.407,200.000 34.959 C 200.000 34.512,199.634 34.146,199.187 34.146 C 198.740 34.146,198.374 33.902,198.374 33.604 C 198.374 33.306,197.642 33.062,196.748 33.062 C 195.664 33.062,195.122 32.791,195.122 32.249 C 195.122 31.802,194.756 31.436,194.309 31.436 C 193.862 31.436,193.496 31.070,193.496 30.623 C 193.496 30.117,192.984 29.810,192.141 29.810 C 191.298 29.810,190.786 29.503,190.786 28.997 C 190.786 28.455,190.244 28.184,189.160 28.184 C 188.076 28.184,187.534 27.913,187.534 27.371 C 187.534 26.769,186.902 26.558,185.095 26.558 C 183.288 26.558,182.656 26.347,182.656 25.745 C 182.656 25.121,181.963 24.932,179.675 24.932 C 177.386 24.932,176.694 24.743,176.694 24.119 C 176.694 23.469,175.881 23.306,172.629 23.306 C 169.377 23.306,168.564 23.144,168.564 22.493 C 168.564 21.834,167.690 21.680,163.957 21.680 C 160.223 21.680,159.350 21.834,159.350 22.493 " stroke="none" fill="#e4e4e4" fill-rule="evenodd"></path><path id="path4" d="M0.000 650.407 L 0.000 1300.813 200.000 1300.813 L 400.000 1300.813 400.000 650.407 L 400.000 0.000 200.000 0.000 L 0.000 0.000 0.000 650.407 M168.564 22.493 C 168.564 23.144,169.377 23.306,172.629 23.306 C 175.881 23.306,176.694 23.469,176.694 24.119 C 176.694 24.743,177.386 24.932,179.675 24.932 C 181.963 24.932,182.656 25.121,182.656 25.745 C 182.656 26.347,183.288 26.558,185.095 26.558 C 186.902 26.558,187.534 26.769,187.534 27.371 C 187.534 27.913,188.076 28.184,189.160 28.184 C 190.244 28.184,190.786 28.455,190.786 28.997 C 190.786 29.503,191.298 29.810,192.141 29.810 C 192.984 29.810,193.496 30.117,193.496 30.623 C 193.496 31.070,193.862 31.436,194.309 31.436 C 194.756 31.436,195.122 31.802,195.122 32.249 C 195.122 32.791,195.664 33.062,196.748 33.062 C 197.642 33.062,198.374 33.306,198.374 33.604 C 198.374 33.902,198.740 34.146,199.187 34.146 C 199.634 34.146,200.000 34.512,200.000 34.959 C 200.000 35.407,200.366 35.772,200.813 35.772 C 201.260 35.772,201.626 36.138,201.626 36.585 C 201.626 37.033,201.992 37.398,202.439 37.398 C 202.886 37.398,203.252 37.764,203.252 38.211 C 203.252 38.659,203.618 39.024,204.065 39.024 C 204.512 39.024,204.878 39.390,204.878 39.837 C 204.878 40.285,205.244 40.650,205.691 40.650 C 206.138 40.650,206.504 41.016,206.504 41.463 C 206.504 41.911,206.748 42.276,207.046 42.276 C 207.344 42.276,207.588 42.642,207.588 43.089 C 207.588 43.537,207.954 43.902,208.401 43.902 C 208.943 43.902,209.214 44.444,209.214 45.528 C 209.214 46.612,209.485 47.154,210.027 47.154 C 210.614 47.154,210.840 47.757,210.840 49.322 C 210.840 50.888,211.066 51.491,211.653 51.491 C 212.304 51.491,212.466 52.304,212.466 55.556 C 212.466 58.808,212.629 59.621,213.279 59.621 C 213.785 59.621,214.092 60.132,214.092 60.976 C 214.092 61.819,214.399 62.331,214.905 62.331 C 215.507 62.331,215.718 62.963,215.718 64.770 C 215.718 66.576,215.929 67.209,216.531 67.209 C 217.133 67.209,217.344 67.841,217.344 69.648 C 217.344 71.454,217.555 72.087,218.157 72.087 C 218.781 72.087,218.970 72.779,218.970 75.068 C 218.970 76.707,219.214 78.049,219.512 78.049 C 219.825 78.049,220.054 79.765,220.054 82.114 C 220.054 85.366,220.217 86.179,220.867 86.179 C 221.568 86.179,221.680 88.016,221.680 99.458 C 221.680 110.900,221.568 112.737,220.867 112.737 C 220.145 112.737,220.054 174.496,220.054 665.312 C 220.054 1033.333,219.873 1217.886,219.512 1217.886 C 219.214 1217.886,218.970 1218.984,218.970 1220.325 C 218.970 1222.132,218.759 1222.764,218.157 1222.764 C 217.570 1222.764,217.344 1223.366,217.344 1224.932 C 217.344 1226.498,217.118 1227.100,216.531 1227.100 C 215.989 1227.100,215.718 1227.642,215.718 1228.726 C 215.718 1229.810,215.447 1230.352,214.905 1230.352 C 214.303 1230.352,214.092 1230.985,214.092 1232.791 C 214.092 1234.598,213.881 1235.230,213.279 1235.230 C 212.634 1235.230,212.466 1236.013,212.466 1239.024 C 212.466 1242.036,212.298 1242.818,211.653 1242.818 C 211.051 1242.818,210.840 1243.451,210.840 1245.257 C 210.840 1247.064,210.629 1247.696,210.027 1247.696 C 209.485 1247.696,209.214 1248.238,209.214 1249.322 C 209.214 1250.407,208.943 1250.949,208.401 1250.949 C 207.954 1250.949,207.588 1251.210,207.588 1251.529 C 207.588 1252.280,206.209 1253.659,205.459 1253.659 C 205.139 1253.659,204.878 1254.024,204.878 1254.472 C 204.878 1254.919,204.512 1255.285,204.065 1255.285 C 203.618 1255.285,203.252 1255.650,203.252 1256.098 C 203.252 1256.640,202.710 1256.911,201.626 1256.911 C 200.542 1256.911,200.000 1257.182,200.000 1257.724 C 200.000 1258.326,199.368 1258.537,197.561 1258.537 C 195.754 1258.537,195.122 1258.747,195.122 1259.350 C 195.122 1259.974,194.429 1260.163,192.141 1260.163 C 189.852 1260.163,189.160 1260.351,189.160 1260.976 C 189.160 1261.635,188.287 1261.789,184.553 1261.789 C 180.819 1261.789,179.946 1261.943,179.946 1262.602 C 179.946 1263.303,178.019 1263.415,165.854 1263.415 C 153.689 1263.415,151.762 1263.303,151.762 1262.602 C 151.762 1261.951,150.949 1261.789,147.696 1261.789 C 144.444 1261.789,143.631 1261.626,143.631 1260.976 C 143.631 1260.351,142.939 1260.163,140.650 1260.163 C 138.362 1260.163,137.669 1259.974,137.669 1259.350 C 137.669 1258.747,137.037 1258.537,135.230 1258.537 C 133.424 1258.537,132.791 1258.326,132.791 1257.724 C 132.791 1257.182,132.249 1256.911,131.165 1256.911 C 130.081 1256.911,129.539 1256.640,129.539 1256.098 C 129.539 1255.592,129.027 1255.285,128.184 1255.285 C 127.341 1255.285,126.829 1254.977,126.829 1254.472 C 126.829 1253.930,126.287 1253.659,125.203 1253.659 C 124.309 1253.659,123.577 1253.415,123.577 1253.117 C 123.577 1252.818,123.211 1252.575,122.764 1252.575 C 122.222 1252.575,121.951 1252.033,121.951 1250.949 C 121.951 1249.864,121.680 1249.322,121.138 1249.322 C 120.691 1249.322,120.325 1248.957,120.325 1248.509 C 120.325 1248.062,119.959 1247.696,119.512 1247.696 C 118.970 1247.696,118.699 1247.154,118.699 1246.070 C 118.699 1244.986,118.428 1244.444,117.886 1244.444 C 117.284 1244.444,117.073 1243.812,117.073 1242.005 C 117.073 1240.199,116.862 1239.566,116.260 1239.566 C 115.601 1239.566,115.447 1238.693,115.447 1234.959 C 115.447 1231.226,115.293 1230.352,114.634 1230.352 C 113.912 1230.352,113.821 1165.282,113.821 647.967 C 113.821 130.653,113.912 65.583,114.634 65.583 C 115.293 65.583,115.447 64.709,115.447 60.976 C 115.447 57.242,115.601 56.369,116.260 56.369 C 116.862 56.369,117.073 55.736,117.073 53.930 C 117.073 52.123,117.284 51.491,117.886 51.491 C 118.473 51.491,118.699 50.888,118.699 49.322 C 118.699 47.757,118.925 47.154,119.512 47.154 C 119.959 47.154,120.325 46.789,120.325 46.341 C 120.325 45.894,120.691 45.528,121.138 45.528 C 121.680 45.528,121.951 44.986,121.951 43.902 C 121.951 42.818,122.222 42.276,122.764 42.276 C 123.211 42.276,123.577 41.911,123.577 41.463 C 123.577 40.921,124.119 40.650,125.203 40.650 C 126.287 40.650,126.829 40.379,126.829 39.837 C 126.829 39.332,127.341 39.024,128.184 39.024 C 129.329 39.024,129.539 38.771,129.539 37.398 C 129.539 35.953,129.720 35.772,131.165 35.772 C 132.249 35.772,132.791 35.501,132.791 34.959 C 132.791 34.512,133.157 34.146,133.604 34.146 C 134.051 34.146,134.417 33.902,134.417 33.604 C 134.417 33.306,134.783 33.062,135.230 33.062 C 135.678 33.062,136.043 32.696,136.043 32.249 C 136.043 31.707,136.585 31.436,137.669 31.436 C 138.753 31.436,139.295 31.165,139.295 30.623 C 139.295 30.117,139.807 29.810,140.650 29.810 C 141.494 29.810,142.005 29.503,142.005 28.997 C 142.005 28.550,142.371 28.184,142.818 28.184 C 143.266 28.184,143.631 27.818,143.631 27.371 C 143.631 26.769,144.264 26.558,146.070 26.558 C 147.877 26.558,148.509 26.347,148.509 25.745 C 148.509 25.143,149.142 24.932,150.949 24.932 C 152.755 24.932,153.388 24.721,153.388 24.119 C 153.388 23.495,154.080 23.306,156.369 23.306 C 158.657 23.306,159.350 23.117,159.350 22.493 C 159.350 21.834,160.223 21.680,163.957 21.680 C 167.690 21.680,168.564 21.834,168.564 22.493 " stroke="none" fill="#ececec" fill-rule="evenodd"></path></g></svg>