<svg width="48.000000pt" height="52.000000pt" viewBox="0 0 48.000000 52.000000" xmlns="http://www.w3.org/2000/svg">
  <g transform="translate(0.000000,52.000000) scale(0.100000,-0.100000)" fill="#f9f9f9" stroke="none">
    <path d="M0 260 l0 -260 240 0 240 0 0 260 0 260 -240 0 -240 0 0 -260z m296
190 c-33 -37 -46 -69 -28 -70 4 -1 23 -15 42 -32 l35 -30 -22 11 c-12 6 -25
16 -28 21 -3 6 -15 10 -26 10 l-19 0 -2 -162 -2 -163 -3 158 -4 157 -16 0 c-9
0 -30 -12 -47 -27 l-30 -28 37 43 c20 23 37 49 37 57 0 8 -19 28 -42 45 -22
16 -34 30 -26 30 8 0 25 -11 38 -25 13 -14 33 -25 45 -25 l21 0 34 35 c19 19
36 35 38 35 2 0 -12 -18 -32 -40z" />
  </g>
  <g transform="translate(0.000000,52.000000) scale(0.100000,-0.100000)" fill="#dddddd" stroke="none">
    <path d="M280 465 c-19 -19 -38 -35 -43 -35 -5 0 -25 14 -44 30 -18 17 -38 30
-43 30 -5 0 -17 -12 -27 -27 -9 -16 -34 -47 -56 -70 l-39 -41 30 -16 c17 -9
36 -16 42 -16 5 0 10 14 10 30 0 17 7 47 15 66 l15 36 30 -22 c16 -11 32 -25
35 -30 3 -5 -13 -30 -36 -55 l-41 -45 16 -6 17 -7 28 27 c15 14 30 26 34 26 4
0 7 -70 7 -155 l0 -155 15 0 15 0 0 160 c0 88 3 160 6 160 3 0 20 -11 37 -24
l33 -25 11 7 c16 10 6 24 -40 61 l-38 30 35 39 c20 22 36 45 36 51 0 21 -26
11 -60 -24z m-180 -85 c0 -5 -2 -10 -4 -10 -3 0 -8 5 -11 10 -3 6 -1 10 4 10
6 0 11 -4 11 -10z m-10 -30 c0 -5 -7 -7 -15 -4 -8 4 -15 8 -15 10 0 2 7 4 15
4 8 0 15 -4 15 -10z" />
  </g>
</svg>