<?xml version="1.0" standalone="no"?>
<!DOCTYPE svg PUBLIC "-//W3C//DTD SVG 20010904//EN"
 "http://www.w3.org/TR/2001/REC-SVG-20010904/DTD/svg10.dtd">
<svg version="1.0" xmlns="http://www.w3.org/2000/svg"
 width="48.000000pt" height="52.000000pt" viewBox="0 0 48.000000 52.000000"
 preserveAspectRatio="xMidYMid meet">

<g transform="translate(0.000000,52.000000) scale(0.100000,-0.100000)"
fill="#000000" stroke="none">
<path d="M286 467 c-19 -20 -40 -37 -46 -37 -6 0 -29 15 -52 33 l-40 32 -17
-24 c-9 -12 -33 -42 -53 -66 -21 -23 -38 -47 -38 -52 0 -9 42 -33 59 -33 5 0
11 23 13 51 3 28 13 58 22 67 15 15 18 14 48 -16 l32 -32 -37 -38 c-60 -62
-42 -90 20 -30 l33 32 0 -162 c0 -137 2 -162 15 -162 13 0 15 25 15 166 l0
166 39 -31 c58 -46 67 -19 11 31 l-43 39 38 39 c30 31 36 43 27 52 -9 9 -20 3
-46 -25z m-186 -87 c0 -5 -2 -10 -4 -10 -3 0 -8 5 -11 10 -3 6 -1 10 4 10 6 0
11 -4 11 -10z m-9 -26 c12 -14 11 -16 -5 -13 -11 2 -21 10 -24 17 -5 17 13 15
29 -4z"/>
</g>
</svg>
