<?xml version="1.0" standalone="no"?>
<!DOCTYPE svg PUBLIC "-//W3C//DTD SVG 20010904//EN"
 "http://www.w3.org/TR/2001/REC-SVG-20010904/DTD/svg10.dtd">
<svg version="1.0" xmlns="http://www.w3.org/2000/svg"
 width="29.000000pt" height="52.000000pt" viewBox="0 0 29.000000 52.000000"
 preserveAspectRatio="xMidYMid meet">

<g transform="translate(0.000000,52.000000) scale(0.100000,-0.100000)"
fill="#dddddd" stroke="none">
<path d="M135 374 c-30 -64 -55 -120 -55 -123 0 -4 14 -26 31 -49 l31 -43 -36
-54 c-20 -30 -36 -59 -36 -65 0 -23 19 -7 48 40 17 27 35 50 39 50 4 0 24 -24
43 -53 25 -38 35 -47 38 -34 2 9 -13 40 -33 67 -30 40 -34 53 -26 69 14 26 14
124 0 171 -10 32 -8 44 10 85 24 55 24 55 11 55 -6 0 -35 -52 -65 -116z m29
-50 c3 -9 6 -40 6 -71 0 -44 -3 -54 -16 -51 -8 2 -23 15 -32 30 -15 25 -14 29
3 67 19 44 29 50 39 25z"/>
</g>
</svg>
