<?xml version="1.0" standalone="no"?>
<!DOCTYPE svg PUBLIC "-//W3C//DTD SVG 20010904//EN"
 "http://www.w3.org/TR/2001/REC-SVG-20010904/DTD/svg10.dtd">
<svg version="1.0" xmlns="http://www.w3.org/2000/svg"
 width="28.000000pt" height="52.000000pt" viewBox="0 0 28.000000 52.000000"
 preserveAspectRatio="xMidYMid meet">

<g transform="translate(0.000000,52.000000) scale(0.100000,-0.100000)"
fill="#dddddd" stroke="none">
<path d="M84 425 c-53 -76 -54 -94 0 -35 20 22 38 40 41 40 11 0 4 -37 -10
-56 -23 -30 -19 -136 7 -187 12 -23 24 -69 28 -102 l7 -60 1 66 c1 37 9 84 18
105 21 50 15 137 -14 192 -12 23 -18 43 -14 46 5 3 30 -14 57 -37 26 -23 46
-36 44 -30 -8 23 -94 122 -106 123 -7 0 -33 -29 -59 -65z m71 -56 c4 -6 -1
-16 -11 -24 -23 -16 -28 -13 -19 14 7 23 20 27 30 10z m15 -53 c0 -14 -36 -46
-52 -46 -14 0 -9 23 9 42 19 22 43 24 43 4z m10 -48 c0 -14 -40 -58 -52 -58
-17 0 -7 38 15 53 27 19 37 21 37 5z m-16 -73 c-6 -16 -24 -21 -24 -7 0 11 11
22 21 22 5 0 6 -7 3 -15z"/>
</g>
</svg>
